<svg width="16" height="16" viewBox="0 0 16 16" fill="none" xmlns="http://www.w3.org/2000/svg">
<path fill-rule="evenodd" clip-rule="evenodd" d="M1.33331 2.66668C1.33331 1.9303 1.93027 1.33334 2.66665 1.33334H5.99998C6.73636 1.33334 7.33331 1.9303 7.33331 2.66668V7.33334C7.33331 8.06972 6.73636 8.66668 5.99998 8.66668H2.66665C1.93027 8.66668 1.33331 8.06972 1.33331 7.33334V2.66668ZM5.99998 2.66668H2.66665V7.33334H5.99998V2.66668ZM8.66665 2.66668C8.66665 1.9303 9.2636 1.33334 9.99998 1.33334H13.3333C14.0697 1.33334 14.6666 1.9303 14.6666 2.66668V4.66668C14.6666 5.40306 14.0697 6.00001 13.3333 6.00001H9.99998C9.2636 6.00001 8.66665 5.40306 8.66665 4.66668V2.66668ZM13.3333 2.66668H9.99998V4.66668H13.3333V2.66668ZM8.66665 8.66668C8.66665 7.9303 9.2636 7.33334 9.99998 7.33334H13.3333C14.0697 7.33334 14.6666 7.9303 14.6666 8.66668V13.3333C14.6666 14.0697 14.0697 14.6667 13.3333 14.6667H9.99998C9.2636 14.6667 8.66665 14.0697 8.66665 13.3333V8.66668ZM13.3333 8.66668H9.99998V13.3333H13.3333V8.66668ZM1.33331 11.3333C1.33331 10.597 1.93027 10 2.66665 10H5.99998C6.73636 10 7.33331 10.597 7.33331 11.3333V13.3333C7.33331 14.0697 6.73636 14.6667 5.99998 14.6667H2.66665C1.93027 14.6667 1.33331 14.0697 1.33331 13.3333V11.3333ZM5.99998 11.3333H2.66665V13.3333H5.99998V11.3333Z" fill="#121312"/>
</svg>
