<svg width="16" height="16" viewBox="0 0 16 16" fill="none" xmlns="http://www.w3.org/2000/svg">
<g clip-path="url(#clip0_27_56)">
<path fill-rule="evenodd" clip-rule="evenodd" d="M4.66669 1.99999C3.19393 1.99999 2.00002 3.1939 2.00002 4.66666V11.3333C2.00002 12.8061 3.19393 14 4.66669 14H11.3334C12.8061 14 14 12.8061 14 11.3333V4.66666C14 3.1939 12.8061 1.99999 11.3334 1.99999H4.66669ZM0.666687 4.66666C0.666687 2.45752 2.45755 0.666656 4.66669 0.666656H11.3334C13.5425 0.666656 15.3334 2.45752 15.3334 4.66666V11.3333C15.3334 13.5425 13.5425 15.3333 11.3334 15.3333H4.66669C2.45755 15.3333 0.666687 13.5425 0.666687 11.3333V4.66666ZM11 4.33332C11 3.96513 11.2985 3.66666 11.6667 3.66666H11.6734C12.0415 3.66666 12.34 3.96513 12.34 4.33332C12.34 4.70151 12.0415 4.99999 11.6734 4.99999H11.6667C11.2985 4.99999 11 4.70151 11 4.33332ZM8.32223 5.99278C7.90611 5.93107 7.48112 6.00215 7.10772 6.1959C6.73432 6.38965 6.43153 6.69621 6.24239 7.07197C6.05326 7.44773 5.98743 7.87356 6.05427 8.28889C6.1211 8.70422 6.31719 9.0879 6.61465 9.38536C6.91211 9.68282 7.29579 9.87891 7.71112 9.94575C8.12645 10.0126 8.55228 9.94675 8.92805 9.75762C9.3038 9.56849 9.61036 9.26569 9.80411 8.89229C9.99786 8.51889 10.0689 8.0939 10.0072 7.67778C9.94429 7.25332 9.7465 6.86035 9.44308 6.55693C9.13966 6.25351 8.74669 6.05572 8.32223 5.99278ZM6.49363 5.0124C7.11596 4.68949 7.82427 4.57102 8.51781 4.67387C9.22524 4.77877 9.88019 5.10842 10.3859 5.61412C10.8916 6.11983 11.2212 6.77477 11.3261 7.4822C11.429 8.17574 11.3105 8.88405 10.9876 9.50638C10.6647 10.1287 10.1538 10.6334 9.5275 10.9486C8.90123 11.2638 8.19152 11.3735 7.4993 11.2621C6.80708 11.1508 6.16761 10.8239 5.67184 10.3282C5.17607 9.8324 4.84925 9.19293 4.73787 8.50071C4.62648 7.80849 4.7362 7.09878 5.05141 6.47251C5.36663 5.84625 5.8713 5.33532 6.49363 5.0124Z" fill="#121312"/>
</g>
<defs>
<clipPath id="clip0_27_56">
<rect width="16" height="16" fill="white"/>
</clipPath>
</defs>
</svg>
