<svg width="16" height="16" viewBox="0 0 16 16" fill="none" xmlns="http://www.w3.org/2000/svg">
<g clip-path="url(#clip0_51_326)">
<path fill-rule="evenodd" clip-rule="evenodd" d="M13.3333 2.00002C13.7015 2.00002 14 2.2985 14 2.66669V5.33335C14 5.70154 13.7015 6.00002 13.3333 6.00002H2.66665C2.29846 6.00002 1.99998 5.70154 1.99998 5.33335V2.66669C1.99998 2.2985 2.29846 2.00002 2.66665 2.00002H13.3333ZM15.3333 2.66669C15.3333 1.56212 14.4379 0.666687 13.3333 0.666687H2.66665C1.56208 0.666687 0.666646 1.56212 0.666646 2.66669V5.33335C0.666646 6.43792 1.56208 7.33335 2.66665 7.33335H13.3333C14.4379 7.33335 15.3333 6.43792 15.3333 5.33335V2.66669ZM12.6666 4.00002C12.6666 3.63183 12.3682 3.33335 12 3.33335H11.9933C11.6251 3.33335 11.3266 3.63183 11.3266 4.00002C11.3266 4.36821 11.6251 4.66669 11.9933 4.66669H12C12.3682 4.66669 12.6666 4.36821 12.6666 4.00002ZM13.3333 10C13.7015 10 14 10.2985 14 10.6667V13.3334C14 13.7015 13.7015 14 13.3333 14H2.66665C2.29846 14 1.99998 13.7015 1.99998 13.3334V10.6667C1.99998 10.2985 2.29846 10 2.66665 10H13.3333ZM15.3333 10.6667C15.3333 9.56212 14.4379 8.66669 13.3333 8.66669H2.66665C1.56208 8.66669 0.666646 9.56212 0.666646 10.6667V13.3334C0.666646 14.4379 1.56208 15.3334 2.66665 15.3334H13.3333C14.4379 15.3334 15.3333 14.4379 15.3333 13.3334V10.6667ZM12.6666 12C12.6666 11.6318 12.3682 11.3334 12 11.3334H11.9933C11.6251 11.3334 11.3266 11.6318 11.3266 12C11.3266 12.3682 11.6251 12.6667 11.9933 12.6667H12C12.3682 12.6667 12.6666 12.3682 12.6666 12Z" fill="black"/>
</g>
<defs>
<clipPath id="clip0_51_326">
<rect width="16" height="16" fill="white" transform="matrix(-1 0 0 1 16 0)"/>
</clipPath>
</defs>
</svg>
